# xmcd CD database file
#
# Track frame offsets:
#	150
#	23405
#	39730
#	59425
#	79032
#	94201
#	112348
#	128991
#
# Disc length: 2005 seconds
#
# Revision: 0
# Processed by: cddbd v1.5.1PL0 Copyright (c) Steve Scherf et al.
# Submitted via: NeoAudio 9.9.9
#
DISCID=6807d308
DTITLE=Robert Dana - Robert Dana
DYEAR=1900
DGENRE=New Age
TTITLE0=Dream of the Forgotten Child
TTITLE1=Until the Last Leaf Falls
TTITLE2=Beceuse
TTITLE3=The Stops
TTITLE4=Return to the Heart
TTITLE5=Where the Tall Tree Grows
TTITLE6=Timeless
TTITLE7=Andalusian Dream
EXTD=
EXTT0=
EXTT1=
EXTT2=
EXTT3=
EXTT4=
EXTT5=
EXTT6=
EXTT7=
PLAYORDER=
